<?xml version="1.0" standalone="no"?><!DOCTYPE svg PUBLIC "-//W3C//DTD SVG 1.1//EN" "http://www.w3.org/Graphics/SVG/1.1/DTD/svg11.dtd"><svg t="1556423280504" class="icon" style="" viewBox="0 0 1066 1024" version="1.1" xmlns="http://www.w3.org/2000/svg" p-id="1456" xmlns:xlink="http://www.w3.org/1999/xlink" width="33.3125" height="32"><defs><style type="text/css"></style></defs><path d="M828.458667 776.704V628.266667c-13.376-1.941333-42.048-10.645333-63.189334-48.576-28.586667-51.2-32.512-136.362667-32.512-136.362667s42.304-2.176 70.848 49.024c12.309333 22.229333 20.074667 50.752 24.853334 75.989333v-111.018666c-13.376-1.92-42.048-10.624-63.189334-48.554667-28.586667-51.2-32.512-136.384-32.512-136.384s42.304-2.176 70.848 49.066667c12.309333 22.208 20.074667 50.709333 24.853334 75.946666v-110.997333c-13.376-1.92-42.048-10.624-63.189334-48.554667-28.586667-51.2-32.512-136.384-32.512-136.384s42.304-2.176 70.848 49.045334c12.309333 22.229333 20.074667 50.730667 24.853334 75.989333V200.746667c0-8.341333 6.101333-15.104 13.397333-15.104h2.858667c7.402667 0 13.376 6.762667 13.376 15.104v25.728c4.8-25.258667 12.565333-53.76 24.853333-75.989334 28.586667-51.2 70.869333-49.045333 70.869333-49.045333s-3.946667 85.162667-32.512 136.384c-21.141333 37.930667-49.813333 46.634667-63.317333 48.554667v111.018666c4.778667-25.258667 12.544-53.76 24.853333-75.989333 28.544-51.2 70.848-49.045333 70.848-49.045333s-3.946667 85.162667-32.490666 136.384c-21.034667 37.930667-49.706667 46.634667-62.976 48.426666v111.018667c4.778667-25.237333 12.544-53.76 24.853333-75.968 28.565333-51.221333 70.848-49.066667 70.848-49.066667s-3.925333 85.184-32.490667 136.405334c-21.141333 37.930667-49.834667 46.613333-63.338666 48.554666v148.586667c116.48 8.170667 208.576 111.018667 208.576 236.8H0c0-125.738667 92.010667-228.565333 208.426667-236.8v-148.48c-13.354667-1.92-42.026667-10.624-63.189334-48.554667-28.565333-51.2-32.490667-136.362667-32.490666-136.362666s42.282667-2.176 70.826666 49.024c12.330667 22.229333 20.096 50.752 24.874667 75.989333v-111.018667c-13.376-1.92-42.069333-10.624-63.210667-48.554666-28.565333-51.2-32.490667-136.384-32.490666-136.384s42.282667-2.176 70.826666 49.066666c12.330667 22.208 20.096 50.709333 24.874667 75.946667v-110.997333c-13.376-1.92-42.069333-10.624-63.210667-48.554667-28.565333-51.2-32.490667-136.384-32.490666-136.384s42.282667-2.176 70.826666 49.045333c12.330667 22.229333 20.096 50.730667 24.874667 75.989334V200.746667c0-8.341333 6.101333-15.104 13.376-15.104h2.88c7.402667 0 13.376 6.762667 13.376 15.104v25.728c4.778667-25.258667 12.544-53.76 24.853333-75.989334 28.565333-51.2 70.848-49.045333 70.848-49.045333s-3.925333 85.162667-32.490666 136.384c-21.141333 37.930667-49.834667 46.634667-63.338667 48.554667v111.018666c4.778667-25.258667 12.544-53.76 24.853333-75.989333 28.565333-51.2 70.869333-49.045333 70.869334-49.045333s-3.946667 85.162667-32.512 136.384c-21.013333 37.930667-49.706667 46.634667-62.954667 48.426666v111.018667c4.778667-25.237333 12.544-53.76 24.853333-75.968 28.544-51.221333 70.848-49.066667 70.848-49.066667s-3.946667 85.184-32.512 136.405334c-21.12 37.930667-49.813333 46.613333-63.317333 48.554666v148.565334c45.738667 3.114667 87.722667 20.821333 121.856 48.789333 41.344-43.456 96.96-71.466667 158.656-75.349333V629.12c-13.376-1.941333-42.026667-10.666667-63.168-48.64-28.544-51.285333-32.490667-136.554667-32.490667-136.554667s42.282667-2.176 70.826667 49.109334c12.288 22.250667 20.053333 50.794667 24.832 76.074666v-111.146666c-13.376-1.941333-42.026667-10.666667-63.168-48.64-28.544-51.285333-32.490667-136.576-32.490667-136.576s42.282667-2.176 70.826667 49.109333c12.288 22.272 20.053333 50.816 24.832 76.096v-111.168c-13.376-1.92-42.026667-10.645333-63.168-48.64-28.544-51.285333-32.490667-136.554667-32.490667-136.554667s42.282667-2.176 70.826667 49.109334c12.288 22.250667 20.053333 50.816 24.832 76.096V201.024c0-8.341333 6.08-15.125333 13.376-15.125333h2.858667c7.402667 0 13.376 6.784 13.376 15.125333v25.770667c4.778667-25.28 12.544-53.845333 24.832-76.096 28.544-51.285333 70.826667-49.109333 70.826666-49.109334s-3.946667 85.269333-32.490666 136.576c-21.013333 37.973333-49.685333 46.677333-63.168 48.618667v111.146667c4.778667-25.258667 12.544-53.802667 24.832-76.074667 28.544-51.285333 70.826667-49.109333 70.826666-49.109333s-3.946667 85.290667-32.490666 136.576c-21.12 37.973333-49.792 46.698667-63.168 48.64v111.146666c4.778667-25.28 12.544-53.824 24.832-76.074666 28.544-51.285333 70.826667-49.109333 70.826666-49.109334s-3.946667 85.269333-32.490666 136.554667c-21.013333 37.973333-49.685333 46.698667-63.168 48.64v121.024c61.632 3.904 117.184 31.936 158.506666 75.370667 34.133333-27.946667 76.053333-45.653333 121.749334-48.810667zM544.512 136.661333a85.482667 85.482667 0 0 0-23.04 27.093334s-17.344-47.786667-1.578667-88.405334c15.786667-40.661333 58.389333-64.490667 58.389334-64.490666s12.544 55.658667-0.832 88.917333c-9.792 21.546667-19.690667 26.368-32.96 36.906667zM234.24 136.490667A88.746667 88.746667 0 0 0 211.2 163.562667s-17.322667-47.722667-1.557333-88.32C225.429333 34.666667 268.074667 10.88 268.074667 10.88s12.544 55.573333-0.853334 88.789333c-9.792 21.504-19.712 26.346667-32.96 36.842667z m620.373333-2.602667a87.04 87.04 0 0 0-22.72 26.496s-17.066667-46.72-1.536-86.464c15.552-39.744 57.6-63.061333 57.6-63.061333s12.352 54.421333-0.853333 86.954666c-9.642667 21.056-19.413333 25.792-32.490667 36.074667z" p-id="1457"></path></svg>